PathFileType	4	(X/Y/Z)	pose_F01_0-65.trc
DataRate	CameraRate	NumFrames	NumMarkers	Units	OrigDataRate	OrigDataStartFrame	OrigNumFrames
30	30	5	21	m	30	0	65
Frame#	Time	CHip			RHip			RKnee			RAnkle			RBigToe			RSmallToe			RHeel			LHip			LKnee			LAnkle			LBigToe			LSmallToe			LHeel			Neck			Nose			RShoulder			RElbow			RWrist			LShoulder			LElbow			LWrist			
		X1	Y1	Z1	X2	Y2	Z2	X3	Y3	Z3	X4	Y4	Z4	X5	Y5	Z5	X6	Y6	Z6	X7	Y7	Z7	X8	Y8	Z8	X9	Y9	Z9	X10	Y10	Z10	X11	Y11	Z11	X12	Y12	Z12	X13	Y13	Z13	X14	Y14	Z14	X15	Y15	Z15	X16	Y16	Z16	X17	Y17	Z17	X18	Y18	Z18	X19	Y19	Z19	X20	Y20	Z20	X21	Y21	Z21	
0	0.0	-0.21663332462727103	1.879702441255111	-0.48021907389697716	-0.23333112453693544	1.874939754597207	-0.4124094449161621	-0.257202557998988	1.739314498875057	-0.4057342367419218													-0.2075558742241469	1.8845437323187049	-0.5430731833146821	-0.19626492163460946	1.7428289652671196	-0.5396990519091963	-0.1985606883828513	1.613625048786748	-0.48770351632882153	-0.19265536056396695	1.5866652782114896	-0.5663307573515223	-0.18647848457777513	1.5954362449290496	-0.5658092363708492	-0.20571204654411887	1.6090911371496366	-0.4709456542003427	-0.21737713135874467	2.0428277601880453	-0.4852200273756035	-0.21523384799845913	2.116864129657945	-0.5325122616103106	-0.24335788989136373	2.045391082304148	-0.41116823833987015	-0.25880900318899686	1.9772135916108775	-0.3763323066661256	-0.2902695200512905	1.9258015261684915	-0.3957208827187605	-0.1950849379384239	2.0440181575099454	-0.5720616241369997	-0.18240618027762429	2.045840324862933	-0.7135122934564561	-0.18271138071498966	2.0936942385516932	-0.6841040869453754
1	0.03333333333333333	-0.2207746245910505	1.8746937928892062	-0.46636768403129236	-0.23628550543053425	1.8710133058788687	-0.4039482190957459	-0.2575945680867158	1.738828278402798	-0.40416504570045725													-0.20908836169128792	1.8792313673308305	-0.52799874523025	-0.1992479496498494	1.7427486687400449	-0.5407484620385961	-0.19643727122509788	1.612998496842898	-0.4898497551743804	-0.19236394284865502	1.5850881651705107	-0.5662944761767282	-0.1851382472894811	1.5945364336713408	-0.5711346801001986	-0.20228724999504202	1.6074714977653974	-0.46965511154624445	-0.22255246694185638	2.0380134937937995	-0.4836577536479966	-0.22045206753408678	2.11454846503235	-0.5314466819021919	-0.2454416046370144	2.0391019562569226	-0.4073803699505985	-0.26357266751756325	1.9703389100753728	-0.37347872627697404	-0.2988887541639852	1.928696599938845	-0.4134031225582098	-0.2003761843887657	2.0393695069463162	-0.5705842654934893	-0.18717771100842417	2.0391251799353416	-0.7089719678095984	-0.1879392722580008	2.088972745756081	-0.6819594452946242
2	0.06666666666666667	-0.22491592455482995	1.8696851445233014	-0.45251629416560757	-0.23923988632413307	1.8670868571605304	-0.3954869932753297	-0.25798657817444365	1.7383420579305389	-0.40259585465899267													-0.21062084915842894	1.8739190023429562	-0.5129243071458179	-0.20223097766508935	1.74266837221297	-0.5417978721679958	-0.19431385406734447	1.6123719448990481	-0.49199599401993926	-0.19207252513334308	1.5835110521295317	-0.5662581950019342	-0.1837980100011871	1.593636622413632	-0.576460123829548	-0.19886245344596518	1.6058518583811583	-0.4683645688921462	-0.22772780252496808	2.0331992273995536	-0.48209547992038976	-0.22567028706971443	2.112232800406755	-0.5303811021940732	-0.24752531938266506	2.0328128302096973	-0.40359250156132687	-0.26833633184612965	1.963464228539868	-0.37062514588782247	-0.3075079882766799	1.9315916737091985	-0.43108536239765916	-0.2056674308391075	2.034720856382687	-0.5691069068499789	-0.19194924173922406	2.03241003500775	-0.7044316421627407	-0.19316716380101195	2.0842512529604686	-0.6798148036438729
3	0.1	-0.22698380527556936	1.8685997216568788	-0.441135288940495	-0.23989853437938774	1.8671556155957894	-0.38100383424150314	-0.2583785882621715	1.7378558374582798	-0.4010266636175281													-0.20959198508859614	1.8697699763637399	-0.5003528268748144	-0.20340953264794748	1.7424269152259484	-0.5361934162796242	-0.1945079713868663	1.6128780979129953	-0.49198926552924205	-0.19225344739062408	1.5841814240329544	-0.56625603889795	-0.1859874897333888	1.5940878375737735	-0.5743082800330138	-0.1986348761481865	1.6042334723181415	-0.4686463975135013	-0.23094344673821066	2.029633039855945	-0.48256125889008517	-0.23451927542040024	2.1041395305480344	-0.53814487316639	-0.25444052158791003	2.0266808885795364	-0.39944077785237664	-0.27349738735235957	1.955802043965051	-0.3684135642925964	-0.3074930720988799	1.9313021946775655	-0.43108554163714735	-0.20979917332157247	2.0325155004996516	-0.5643581900806022	-0.19762312803515666	2.0137939737928168	-0.7002262512681237	-0.19977316491125707	2.0772880745154434	-0.6919921164358338
4	0.13333333333333333	-0.22578510288137787	1.8657504721852685	-0.41968251051304034	-0.2413523822432281	1.8630093807641166	-0.360571214128678	-0.25877059834989935	1.7373696169860207	-0.3994574725760635													-0.210887490189307	1.868908925982002	-0.4855251010102268	-0.2069423410023753	1.737244629835424	-0.5315801705372086	-0.19398300007550912	1.6102649819602401	-0.4920527693617979	-0.193256933635915	1.5835533418409435	-0.5609023194873124	-0.18500885453285726	1.5938292629730635	-0.5710518777926701	-0.1985606972273684	1.603746322773079	-0.46872517808135716	-0.23786102470573395	2.022355828607739	-0.4857856450731102	-0.24080514228697608	2.09665759514571	-0.5394022454523186	-0.26033553456980585	2.0225628881419695	-0.39258182102053624	-0.2747470006729125	1.9490648367498273	-0.3704817519059963	-0.3094409276348206	1.9216113938646397	-0.4356649931089399	-0.2135522621897971	2.0245757263614164	-0.5745017405555283	-0.20758641059822414	1.987334557670789	-0.6794840790462086	-0.19539724060761066	2.055006401794306	-0.7116332561053812
